<?xml version="1.0" encoding="UTF-8" ?>
<!DOCTYPE svg PUBLIC "-//W3C//DTD SVG 1.1//EN" "http://www.w3.org/Graphics/SVG/1.1/DTD/svg11.dtd">
<svg width="1691pt" height="591pt" viewBox="0 0 1691 591" version="1.1" xmlns="http://www.w3.org/2000/svg">
<path fill="#353535" d=" M 513.16 3.30 C 517.66 2.48 522.14 0.36 526.76 0.98 C 531.91 5.55 536.58 10.67 541.50 15.50 C 548.62 24.31 557.29 31.70 565.06 39.92 C 566.13 40.94 565.66 42.62 565.84 43.93 C 565.84 71.17 565.73 98.40 565.89 125.63 C 586.75 119.97 607.92 115.52 628.81 109.96 C 646.94 106.02 664.82 101.00 682.92 96.92 C 692.44 94.78 701.78 91.87 711.37 90.04 C 719.65 88.34 727.65 85.21 736.09 84.36 C 742.10 90.20 748.32 95.89 753.54 102.47 C 758.80 107.88 764.22 113.13 769.51 118.51 C 770.48 119.25 771.35 120.83 772.80 120.45 C 779.97 118.90 786.99 116.72 794.15 115.09 C 806.13 112.79 817.76 108.97 829.74 106.63 C 836.22 105.32 842.45 102.75 849.09 102.33 C 852.56 105.47 855.68 108.97 859.13 112.14 C 869.44 110.02 879.69 107.53 889.87 104.84 C 898.64 102.46 907.63 100.97 916.37 98.42 C 979.95 82.99 1043.50 67.40 1107.08 51.99 C 1109.61 51.34 1111.18 53.73 1112.82 55.20 C 1117.20 59.80 1121.86 64.13 1126.23 68.74 C 1132.84 77.24 1141.46 83.93 1148.46 92.07 C 1148.74 102.25 1148.53 112.46 1148.53 122.65 C 1163.34 119.87 1177.68 115.05 1192.52 112.42 C 1193.40 98.40 1192.54 84.29 1192.93 70.24 C 1212.59 65.32 1232.29 60.59 1251.99 55.85 C 1262.79 53.45 1273.38 50.14 1284.26 48.06 C 1296.70 44.85 1309.17 41.78 1321.68 38.84 C 1325.67 38.13 1329.67 36.12 1333.78 36.86 C 1336.98 39.45 1339.56 42.68 1342.15 45.85 C 1354.89 58.95 1368.34 71.37 1380.42 85.09 C 1380.49 88.95 1380.45 92.82 1380.54 96.69 C 1420.03 87.07 1459.53 77.47 1499.02 67.83 C 1510.88 65.30 1522.47 61.65 1534.38 59.32 C 1548.05 55.76 1561.81 52.55 1575.54 49.24 C 1583.92 47.38 1592.11 44.74 1600.55 43.17 C 1609.46 41.25 1618.16 38.41 1627.11 36.70 C 1630.06 35.84 1631.73 38.70 1633.61 40.40 C 1637.38 44.29 1641.34 47.99 1645.05 51.93 C 1652.19 60.77 1661.03 68.04 1668.65 76.43 C 1669.31 100.91 1668.63 125.48 1668.98 149.99 C 1668.87 151.35 1670.22 152.12 1670.99 153.06 C 1676.99 159.04 1683.01 165.00 1688.97 171.02 C 1690.44 172.21 1690.27 174.24 1690.53 175.94 C 1690.49 272.95 1690.53 369.98 1690.50 467.00 C 1690.19 474.97 1691.19 482.99 1690.03 490.92 C 1683.21 493.38 1675.96 494.13 1669.04 496.18 C 1668.67 504.65 1669.11 513.14 1668.82 521.62 C 1658.48 523.54 1648.34 526.30 1638.18 528.91 C 1618.41 533.39 1598.82 538.64 1579.06 543.15 C 1567.72 546.38 1556.10 548.40 1544.76 551.60 C 1503.48 561.61 1462.21 571.63 1420.97 581.80 C 1409.69 583.96 1398.78 587.72 1387.48 589.76 C 1385.66 589.95 1383.32 590.73 1382.05 588.99 C 1376.11 582.90 1369.68 577.25 1364.42 570.55 C 1357.78 563.64 1350.72 557.14 1344.20 550.13 C 1344.25 548.22 1344.27 546.33 1344.31 544.43 C 1331.18 547.50 1318.14 551.00 1304.96 553.71 C 1299.15 548.29 1293.70 542.52 1288.03 536.96 C 1283.26 532.05 1278.07 527.51 1273.93 522.03 C 1264.01 511.97 1253.91 502.09 1244.01 492.02 C 1242.93 491.02 1241.79 489.59 1240.15 490.21 C 1221.04 494.57 1202.09 499.62 1182.98 503.94 C 1181.28 504.33 1180.27 502.69 1179.16 501.77 C 1170.88 493.40 1162.52 485.11 1154.17 476.81 C 1152.08 474.78 1150.45 472.36 1148.59 470.14 C 1148.49 481.06 1148.73 491.98 1148.48 502.90 C 1137.58 506.13 1126.39 508.28 1115.39 511.13 C 1104.46 513.63 1093.70 516.78 1082.72 518.99 C 1069.55 522.63 1056.16 525.30 1042.97 528.80 C 1006.42 537.62 969.94 546.65 933.39 555.44 C 922.56 558.54 911.43 560.41 900.60 563.53 C 892.44 565.35 884.43 567.84 876.15 569.07 C 869.29 562.18 862.03 555.63 855.78 548.18 C 840.94 551.63 826.19 555.42 811.38 558.95 C 808.35 559.42 805.29 560.81 802.21 560.14 C 796.57 555.48 792.32 549.48 787.11 544.41 C 775.11 547.40 763.09 550.32 751.05 553.17 C 741.83 555.26 732.78 558.02 723.49 559.80 C 704.64 564.74 685.60 568.94 666.73 573.80 C 665.11 574.05 663.09 574.55 661.88 573.12 C 658.77 570.21 655.88 567.10 652.85 564.12 C 643.21 552.81 632.09 542.88 621.76 532.23 C 616.62 527.67 612.75 521.94 607.69 517.31 C 598.56 508.10 589.24 499.06 580.20 489.76 C 576.22 484.55 571.32 480.18 566.75 475.52 C 564.98 477.27 562.50 477.72 560.19 478.31 C 555.11 479.51 550.11 481.02 545.01 482.11 C 535.99 483.78 527.25 486.60 518.31 488.58 C 462.81 501.93 407.42 515.74 351.90 528.99 C 351.78 533.03 352.29 537.14 351.41 541.13 C 336.48 544.21 321.78 548.28 306.96 551.82 C 296.91 553.88 287.05 556.76 277.07 559.15 C 264.36 561.75 251.92 565.49 239.23 568.20 C 234.15 569.30 229.21 571.09 224.02 571.62 C 216.07 564.02 208.45 556.08 200.60 548.39 C 196.79 544.84 194.01 540.36 190.06 536.93 C 179.57 526.10 168.25 516.03 158.51 504.51 C 148.67 494.66 138.75 484.88 128.98 474.96 C 122.13 466.21 113.19 459.31 106.07 450.85 C 105.83 445.12 106.12 439.38 105.95 433.65 C 92.51 436.38 79.28 440.07 65.90 443.06 C 64.48 443.48 63.18 442.79 62.25 441.75 C 52.77 432.22 43.25 422.73 33.72 413.25 C 31.11 410.83 29.26 407.75 26.68 405.30 C 18.82 397.51 11.04 389.64 3.14 381.88 C -0.75 378.81 0.61 373.30 0.44 368.99 C 0.58 312.33 0.43 255.66 0.50 199.00 C 0.81 190.60 -0.19 182.15 0.99 173.80 C 8.27 172.64 15.31 170.38 22.47 168.67 C 38.30 164.87 54.15 161.17 69.89 157.04 C 81.12 154.90 92.05 151.46 103.22 149.06 C 103.74 124.38 103.12 99.67 103.53 74.98 C 119.86 70.76 136.35 67.17 152.65 62.83 C 166.03 60.18 179.04 56.03 192.41 53.37 C 199.87 51.43 207.35 49.57 214.84 47.79 C 220.37 46.52 225.79 44.46 231.50 44.31 C 239.02 51.77 246.35 59.44 254.06 66.70 C 272.33 61.78 290.80 57.64 309.16 53.08 C 319.73 50.08 330.58 48.27 341.14 45.22 C 361.37 40.45 381.51 35.28 401.77 30.59 C 410.84 28.28 419.89 25.83 429.07 23.97 C 449.46 18.60 470.08 14.14 490.48 8.76 C 498.12 7.27 505.63 5.25 513.16 3.30 Z" />
<path fill="#bfbfbf" d=" M 485.07 13.15 C 498.37 10.22 511.43 6.23 524.81 3.64 C 528.39 6.92 531.84 10.36 535.11 13.95 C 540.13 20.21 546.19 25.51 551.76 31.28 C 554.92 34.65 558.70 37.50 561.21 41.44 C 551.28 43.31 541.56 46.10 531.76 48.55 C 515.57 52.04 499.62 56.54 483.47 60.17 C 450.82 68.29 418.07 75.98 385.45 84.19 C 375.74 86.04 366.30 89.00 356.67 91.17 C 342.63 94.37 328.68 97.99 314.70 101.43 C 307.44 102.85 300.31 104.86 293.14 106.64 C 282.24 95.63 270.83 85.07 260.63 73.40 C 259.12 71.85 257.55 70.36 255.98 68.88 C 266.26 66.53 276.47 63.89 286.76 61.59 C 299.14 58.10 311.78 55.70 324.20 52.33 C 332.56 50.49 340.80 48.08 349.18 46.31 C 360.62 43.80 371.81 40.30 383.32 38.08 C 403.97 32.64 424.85 28.12 445.50 22.67 C 458.80 19.95 471.82 16.07 485.07 13.15 Z" />
<path fill="#bfbfbf" d=" M 1261.54 56.42 C 1284.59 50.74 1307.71 45.34 1330.71 39.44 C 1338.04 46.04 1344.68 53.36 1351.78 60.21 C 1360.23 68.18 1367.43 77.33 1376.01 85.18 C 1366.78 87.90 1357.39 90.02 1348.01 92.08 C 1334.58 95.76 1320.97 98.68 1307.48 102.08 C 1285.93 107.33 1264.41 112.65 1242.85 117.82 C 1241.50 118.36 1240.59 116.97 1239.73 116.26 C 1234.97 111.35 1229.88 106.75 1225.61 101.40 C 1216.22 91.48 1206.06 82.28 1196.83 72.20 C 1208.11 69.46 1219.41 66.81 1230.63 63.85 C 1241.04 61.84 1251.19 58.74 1261.54 56.42 Z" />
<path fill="#bfbfbf" d=" M 1600.73 46.01 C 1609.77 44.04 1618.62 41.26 1627.71 39.47 C 1632.62 43.81 1637.22 48.53 1641.44 53.57 C 1648.78 61.62 1657.13 68.73 1664.25 76.98 C 1630.94 85.63 1597.35 93.20 1564.00 101.71 C 1553.32 103.78 1542.93 107.02 1532.31 109.33 C 1524.20 111.02 1516.25 113.37 1508.17 115.17 C 1501.85 116.58 1495.67 118.76 1489.23 119.56 C 1486.87 118.24 1485.15 116.02 1483.11 114.29 C 1474.38 115.29 1466.10 118.38 1457.53 120.17 C 1433.38 126.02 1409.20 131.77 1385.11 137.86 C 1383.59 138.19 1382.07 138.42 1380.57 138.66 C 1380.44 125.65 1380.48 112.65 1380.55 99.64 C 1433.40 86.81 1486.21 73.83 1539.09 61.07 C 1548.34 58.32 1557.91 56.84 1567.19 54.20 C 1578.31 51.21 1589.59 48.93 1600.73 46.01 Z" />
<path fill="#7c7c7c" d=" M 529.74 51.86 C 541.13 49.41 552.27 45.84 563.80 44.07 C 563.97 65.04 563.82 86.02 563.87 107.00 C 563.77 113.21 564.16 119.43 563.66 125.64 C 553.91 127.80 544.33 130.63 534.59 132.81 C 528.99 134.20 523.30 135.24 517.82 137.05 C 517.28 173.37 517.78 209.72 517.57 246.05 C 517.00 249.81 520.27 252.07 522.50 254.50 C 533.13 266.80 545.41 277.55 556.49 289.45 C 558.65 292.13 561.45 294.38 562.94 297.56 C 546.76 302.16 530.11 304.92 514.07 310.01 C 513.86 340.67 514.05 371.34 513.99 402.00 C 514.21 408.59 513.51 415.24 514.25 421.80 C 522.42 431.17 532.01 439.32 540.37 448.55 C 545.73 455.18 552.12 460.86 558.07 466.93 C 560.21 469.29 563.40 471.17 563.93 474.55 C 553.58 476.78 543.45 479.87 533.08 482.03 C 522.70 484.75 512.15 486.80 501.84 489.80 C 494.88 491.71 487.67 492.60 480.77 494.73 C 471.25 497.56 461.43 499.16 451.88 501.85 C 445.49 503.59 438.95 504.73 432.59 506.57 C 424.63 508.90 416.38 510.08 408.41 512.37 C 397.33 515.63 385.89 517.46 374.81 520.71 C 367.17 522.14 359.81 524.72 352.16 526.08 C 351.96 514.21 351.82 502.32 352.24 490.46 C 360.68 488.67 369.14 486.91 377.41 484.41 C 384.88 482.41 392.58 481.43 399.96 479.05 C 427.22 472.41 454.53 465.94 481.73 459.06 C 489.89 457.41 498.01 455.48 505.96 452.98 C 506.13 439.31 505.94 425.63 506.05 411.96 C 506.44 408.15 503.32 405.54 500.89 403.14 C 497.42 399.91 494.66 396.03 491.32 392.68 C 484.30 385.71 477.27 378.74 470.36 371.67 C 468.80 370.31 467.29 368.31 465.00 368.46 C 459.74 368.59 454.67 370.27 449.60 371.54 C 430.68 376.33 411.60 380.48 392.77 385.59 C 381.04 387.69 369.74 391.58 358.04 393.80 C 358.06 378.94 357.86 364.07 358.15 349.22 C 368.24 346.64 378.44 344.48 388.46 341.60 C 399.64 339.55 410.50 336.15 421.59 333.68 C 431.81 331.28 441.99 328.77 452.17 326.24 C 462.00 323.44 472.21 322.09 481.90 318.78 C 482.25 306.19 481.83 293.58 482.08 280.98 C 481.99 278.15 482.49 274.88 480.38 272.62 C 476.90 268.47 472.58 265.11 469.06 260.99 C 462.51 252.90 454.58 246.10 447.46 238.54 C 445.18 236.37 442.84 232.93 439.21 234.12 C 427.70 236.85 416.11 239.32 404.74 242.58 C 398.01 244.44 391.05 245.26 384.38 247.31 C 375.71 249.92 366.76 251.38 358.03 253.75 C 358.09 238.92 357.84 224.09 358.15 209.28 C 363.30 207.44 368.69 206.45 374.00 205.22 C 384.91 202.86 395.56 199.41 406.55 197.40 C 424.34 192.72 442.30 188.69 460.15 184.23 C 464.55 183.01 468.96 181.78 473.46 180.93 C 484.26 178.84 494.66 175.02 505.58 173.46 C 506.40 169.35 505.98 165.15 506.02 161.00 C 506.02 151.66 505.97 142.31 506.08 132.97 C 505.98 130.71 506.46 128.03 504.51 126.39 C 497.72 119.58 490.72 112.94 484.10 105.96 C 479.18 99.91 473.54 94.50 467.97 89.06 C 466.57 87.41 464.22 87.92 462.36 88.23 C 445.35 92.82 428.02 96.20 411.03 100.91 C 402.62 102.55 394.32 104.70 386.04 106.95 C 365.25 111.66 344.64 117.14 323.85 121.89 C 319.39 122.79 315.08 124.97 310.47 124.71 C 308.43 123.05 306.90 120.87 305.21 118.88 C 302.38 115.40 298.79 112.65 296.00 109.15 C 305.41 106.01 315.30 104.69 324.82 101.93 C 334.59 98.99 344.74 97.61 354.49 94.62 C 368.48 91.27 382.45 87.80 396.45 84.51 C 403.38 82.53 410.37 80.84 417.43 79.45 C 435.26 74.72 453.26 70.71 471.15 66.23 C 479.86 63.60 488.91 62.34 497.64 59.78 C 508.25 56.78 519.14 54.91 529.74 51.86 Z" />
<path fill="#bfbfbf" d=" M 196.33 55.31 C 207.34 52.16 218.62 50.15 229.66 47.14 C 243.62 61.25 257.77 75.16 271.72 89.28 C 276.99 95.97 283.55 101.45 289.27 107.73 C 294.57 114.43 301.24 119.86 306.92 126.22 C 298.83 127.34 291.10 130.06 283.14 131.80 C 277.46 133.35 271.55 134.06 266.01 136.09 C 265.85 152.25 266.28 168.42 265.79 184.56 C 251.55 188.01 237.27 191.25 223.09 194.94 C 212.67 184.68 202.42 174.25 192.03 163.96 C 181.10 151.28 168.62 140.04 156.97 128.02 C 144.50 113.22 129.32 100.93 116.85 86.13 C 113.83 83.00 110.55 80.12 107.72 76.81 C 121.31 73.94 134.60 69.85 148.21 67.10 C 164.18 62.91 180.28 59.19 196.33 55.31 Z" />
<path fill="#bfbfbf" d=" M 1086.01 60.04 C 1093.19 58.08 1100.47 56.50 1107.76 55.01 C 1116.44 62.77 1123.57 72.00 1132.01 79.99 C 1136.00 84.03 1140.09 87.97 1144.04 92.06 C 1140.67 93.74 1136.85 94.10 1133.29 95.16 C 1099.02 103.45 1064.80 111.87 1030.54 120.16 C 1021.60 122.20 1012.83 124.89 1003.83 126.59 C 983.78 131.73 963.60 136.33 943.54 141.43 C 928.86 144.56 914.47 148.97 899.74 151.86 C 897.60 152.40 896.43 150.11 895.00 148.98 C 887.05 140.60 878.25 133.01 870.94 124.05 C 868.05 120.96 864.90 118.12 862.03 115.01 C 882.02 109.10 902.56 105.26 922.66 99.73 C 933.23 97.66 943.57 94.59 954.06 92.17 C 987.42 84.15 1020.70 75.88 1054.06 67.88 C 1064.64 65.00 1075.43 62.96 1086.01 60.04 Z" />
<path fill="#7c7c7c" d=" M 1651.18 83.30 C 1656.36 82.03 1661.53 80.64 1666.83 79.90 C 1667.03 102.92 1667.06 125.96 1666.80 148.99 C 1660.49 141.09 1653.05 134.26 1646.02 127.04 C 1644.66 125.74 1643.08 124.22 1641.04 124.71 C 1632.31 125.98 1623.84 128.54 1615.26 130.48 C 1611.71 127.39 1608.83 123.62 1605.25 120.59 C 1603.91 119.18 1601.88 119.69 1600.21 119.85 C 1591.52 121.37 1583.19 124.44 1574.54 126.09 C 1563.52 128.23 1552.89 131.96 1541.81 133.84 C 1531.60 136.77 1521.19 138.90 1510.94 141.67 C 1507.00 138.42 1503.69 134.51 1500.02 130.99 C 1497.42 128.35 1494.55 125.95 1492.30 123.00 C 1492.46 121.59 1494.00 121.71 1495.06 121.37 C 1504.66 119.46 1513.92 116.15 1523.59 114.57 C 1543.99 109.12 1564.66 104.71 1585.07 99.32 C 1596.86 97.24 1608.21 93.30 1619.96 91.00 C 1630.34 88.32 1640.83 86.10 1651.18 83.30 Z" />
<path fill="#bfbfbf" d=" M 730.88 87.95 C 732.06 87.77 733.32 87.15 734.54 87.55 C 738.15 90.24 740.64 94.08 743.67 97.35 C 751.68 105.49 759.96 113.37 767.83 121.65 C 756.45 124.10 745.20 127.14 733.89 129.85 C 725.42 131.76 716.95 133.71 708.62 136.15 C 708.14 152.76 708.56 169.38 708.42 186.00 C 708.48 213.32 708.29 240.65 708.50 267.96 C 709.97 271.94 714.18 274.35 716.89 277.58 C 700.88 281.15 685.08 285.74 669.01 288.98 C 667.66 289.04 666.91 287.69 665.96 286.98 C 657.02 277.94 647.98 269.00 639.01 259.99 C 627.02 245.72 612.39 233.89 600.38 219.63 C 591.59 210.75 582.68 201.98 573.88 193.11 C 563.19 180.52 550.63 169.68 539.40 157.59 C 535.57 152.78 531.03 148.62 526.70 144.30 C 525.03 142.61 523.09 141.11 522.04 138.93 C 543.22 134.02 564.34 128.82 585.44 123.54 C 596.36 121.42 606.99 118.08 617.85 115.68 C 635.06 111.75 652.10 107.06 669.35 103.27 C 689.77 97.81 710.47 93.49 730.88 87.95 Z" />
<path fill="#7c7c7c" d=" M 1340.20 97.17 C 1353.05 93.96 1365.99 91.11 1378.74 87.50 C 1378.12 104.76 1378.96 122.04 1378.32 139.28 C 1370.02 142.15 1361.10 142.85 1352.95 146.08 C 1352.65 161.59 1353.17 177.11 1352.74 192.62 C 1332.05 198.28 1311.02 202.55 1290.33 208.19 C 1274.17 211.60 1258.25 216.04 1242.14 219.71 C 1241.84 194.48 1242.10 169.24 1242.01 144.00 C 1242.11 136.44 1241.80 128.88 1242.18 121.33 C 1263.55 115.23 1285.37 110.84 1306.84 105.12 C 1318.12 103.12 1328.97 99.39 1340.20 97.17 Z" />
<path fill="#bfbfbf" d=" M 437.05 97.34 C 446.57 95.03 456.02 92.24 465.73 90.85 C 469.59 95.76 474.23 99.96 478.60 104.39 C 485.62 111.39 492.59 118.43 499.66 125.39 C 500.60 126.29 501.41 127.32 501.97 128.51 C 487.21 131.47 472.80 135.90 458.06 138.91 C 438.62 144.03 418.99 148.35 399.52 153.35 C 385.68 156.27 372.13 160.39 358.27 163.22 C 341.22 167.70 323.99 171.47 306.91 175.86 C 301.26 170.60 295.69 165.18 290.81 159.18 C 284.04 152.07 276.85 145.36 270.07 138.26 C 284.65 134.18 299.55 131.32 314.15 127.27 C 327.26 124.11 340.37 120.87 353.45 117.56 C 365.68 115.14 377.58 111.30 389.82 108.92 C 405.51 104.85 421.29 101.15 437.05 97.34 Z" />
<path fill="#7c7c7c" d=" M 1103.22 105.30 C 1117.79 102.35 1132.02 97.95 1146.62 95.16 C 1146.57 104.31 1146.64 113.46 1146.60 122.61 C 1137.60 126.23 1127.72 126.82 1118.64 130.12 C 1118.09 141.07 1118.58 152.05 1118.48 163.01 C 1114.58 160.42 1112.29 156.22 1108.96 153.04 C 1101.07 145.27 1093.31 137.38 1085.46 129.59 C 1083.06 126.72 1079.09 128.30 1076.05 128.96 C 1066.02 132.01 1055.63 133.62 1045.56 136.54 C 1039.99 138.05 1034.32 139.11 1028.75 140.62 C 1021.03 142.85 1013.03 143.95 1005.32 146.23 C 995.02 149.31 984.36 150.95 974.04 153.96 C 963.55 156.26 953.25 159.30 942.73 161.46 C 933.76 163.33 925.09 166.52 916.04 167.97 C 913.68 168.70 912.13 166.63 910.78 165.10 C 907.79 161.53 904.29 158.45 901.12 155.05 C 908.28 152.41 915.93 151.51 923.23 149.34 C 934.12 146.40 945.24 144.43 956.06 141.22 C 974.58 137.15 992.87 132.10 1011.38 127.91 C 1021.49 125.65 1031.39 122.47 1041.60 120.63 C 1062.06 115.20 1082.79 110.85 1103.22 105.30 Z" />
<path fill="#bfbfbf" d=" M 836.76 107.64 C 840.36 106.96 843.91 105.15 847.60 105.41 C 850.80 107.89 852.92 111.42 855.80 114.24 C 865.80 124.23 875.83 134.20 885.82 144.22 C 893.55 153.41 902.43 161.54 910.91 170.02 C 901.28 171.56 892.05 174.88 882.45 176.59 C 872.34 179.15 862.21 181.61 852.10 184.14 C 850.24 184.36 850.78 186.69 850.60 187.96 C 850.53 198.83 850.75 209.70 850.54 220.57 C 839.63 223.67 828.52 226.08 817.48 228.67 C 813.07 229.72 808.75 231.15 804.26 231.83 C 796.25 224.16 788.19 216.47 781.02 208.00 C 771.38 198.30 761.69 188.65 752.01 179.00 C 747.51 174.81 744.03 169.67 739.48 165.53 C 730.37 156.27 720.88 147.37 712.06 137.85 C 722.48 135.32 732.96 133.08 743.33 130.34 C 753.91 127.44 764.72 125.51 775.27 122.49 C 795.79 117.65 816.25 112.55 836.76 107.64 Z" />
<path fill="#bfbfbf" d=" M 1156.70 123.80 C 1168.76 120.92 1180.75 117.68 1192.90 115.20 C 1192.92 134.74 1192.66 154.30 1193.01 173.83 C 1196.53 179.37 1203.10 182.56 1206.05 188.47 C 1198.36 190.23 1190.75 192.34 1182.99 193.79 C 1172.62 183.58 1162.36 173.24 1152.08 162.93 C 1143.10 151.98 1132.00 142.97 1122.71 132.30 C 1133.87 128.79 1145.45 126.94 1156.70 123.80 Z" />
<path fill="#bfbfbf" d=" M 1478.87 117.89 C 1480.05 117.69 1481.31 117.08 1482.56 117.46 C 1485.71 120.00 1487.80 123.55 1490.67 126.37 C 1496.04 131.79 1501.55 137.08 1506.84 142.60 C 1502.41 143.68 1497.94 144.57 1493.53 145.71 C 1492.65 150.60 1493.37 155.58 1492.82 160.50 C 1481.83 162.71 1471.13 166.12 1460.13 168.22 C 1459.45 178.41 1460.10 188.65 1459.84 198.86 C 1451.65 201.28 1443.25 202.91 1435.00 205.09 C 1429.16 206.58 1423.34 208.29 1417.34 208.96 C 1408.27 200.26 1399.57 191.19 1390.61 182.39 C 1385.67 177.96 1381.86 172.49 1377.04 167.96 C 1370.31 161.21 1363.47 154.58 1356.86 147.72 C 1364.79 144.75 1373.30 143.76 1381.48 141.59 C 1395.19 138.22 1408.91 134.91 1422.64 131.63 C 1432.41 128.77 1442.47 127.14 1452.26 124.37 C 1461.07 122.00 1470.05 120.28 1478.87 117.89 Z" />
<path fill="#bfbfbf" d=" M 1598.02 123.16 C 1599.59 122.97 1601.54 121.75 1602.92 123.11 C 1606.94 126.72 1610.73 130.64 1614.12 134.87 C 1622.10 143.63 1631.19 151.37 1638.95 160.33 C 1628.19 162.29 1617.71 165.40 1607.07 167.89 C 1582.85 173.69 1558.67 179.67 1534.47 185.57 C 1527.48 179.23 1521.11 172.24 1514.31 165.72 C 1510.66 162.33 1507.84 158.19 1504.25 154.76 C 1501.95 152.49 1499.35 150.41 1497.83 147.50 C 1508.79 145.48 1519.47 142.31 1530.31 139.75 C 1539.01 138.06 1547.51 135.47 1556.16 133.53 C 1570.09 129.96 1584.17 127.02 1598.02 123.16 Z" />
<path fill="#ffffff" d=" M 1617.83 133.02 C 1625.50 131.45 1633.06 129.39 1640.64 127.47 C 1653.77 140.30 1666.61 153.44 1679.68 166.34 C 1681.91 168.48 1683.70 171.02 1685.65 173.43 C 1671.36 176.38 1657.34 180.42 1643.09 183.50 C 1643.13 175.42 1643.24 167.33 1643.06 159.25 C 1639.72 155.83 1636.16 152.63 1632.99 149.06 C 1628.58 143.13 1622.66 138.58 1617.83 133.02 Z" />
<path fill="#ffffff" d=" M 307.53 178.58 C 373.02 162.77 438.44 146.64 503.94 130.86 C 504.05 144.14 503.95 157.42 503.99 170.69 C 484.63 175.20 465.30 179.89 446.03 184.78 C 436.81 186.52 427.84 189.30 418.69 191.38 C 408.06 193.78 397.51 196.49 386.92 199.07 C 376.35 202.03 365.43 203.65 355.01 207.12 C 354.99 237.74 355.01 268.37 355.00 299.00 C 355.03 301.77 354.75 304.53 354.49 307.29 C 372.05 302.91 389.71 298.94 407.22 294.36 C 423.40 290.85 439.35 286.36 455.50 282.73 C 463.35 280.98 471.06 278.71 478.90 276.96 C 479.25 290.23 479.05 303.52 479.01 316.80 C 465.88 319.90 452.76 323.02 439.71 326.43 C 429.94 328.32 420.40 331.20 410.70 333.42 C 392.24 337.62 373.99 342.63 355.49 346.66 C 355.21 347.74 355.04 348.85 354.99 349.97 C 355.02 382.15 354.99 414.34 355.00 446.52 C 360.04 446.88 364.72 444.55 369.59 443.64 C 383.44 440.79 396.98 436.60 410.84 433.80 C 424.59 430.12 438.50 427.06 452.31 423.60 C 460.13 421.88 467.78 419.45 475.65 417.93 C 485.16 415.94 494.42 412.92 503.95 411.07 C 503.98 424.29 504.08 437.51 503.89 450.73 C 484.04 455.70 464.11 460.43 444.23 465.29 C 434.17 468.16 423.84 469.91 413.78 472.75 C 397.99 476.65 382.13 480.23 366.40 484.37 C 346.66 488.83 326.97 493.53 307.35 498.55 C 307.27 393.36 307.36 288.16 307.31 182.97 C 307.32 181.50 307.41 180.04 307.53 178.58 Z" />
<path fill="#bfbfbf" d=" M 1039.06 141.22 C 1053.47 138.32 1067.53 133.90 1081.95 131.03 C 1086.21 135.08 1090.53 139.11 1094.21 143.71 C 1101.77 152.47 1111.01 159.74 1118.27 168.74 C 1106.35 171.57 1094.45 174.47 1082.58 177.49 C 1069.23 180.21 1056.22 184.29 1042.87 186.97 C 1025.83 191.43 1008.66 195.32 991.57 199.57 C 981.26 202.52 970.65 204.26 960.35 207.24 C 937.33 212.74 914.37 218.48 891.34 223.93 C 884.87 217.29 878.13 210.92 871.78 204.18 C 866.72 197.65 860.09 192.58 854.85 186.23 C 860.76 184.80 866.62 183.15 872.55 181.79 C 882.81 179.82 892.80 176.67 903.01 174.43 C 920.08 170.32 937.10 166.08 954.20 162.09 C 961.95 160.05 969.71 158.02 977.58 156.46 C 997.99 151.05 1018.64 146.62 1039.06 141.22 Z" />
<path fill="#bfbfbf" d=" M 62.18 162.04 C 75.95 158.95 89.50 154.77 103.39 152.27 C 103.31 177.61 103.51 202.96 103.29 228.30 C 94.58 230.93 85.66 232.81 76.80 234.84 C 72.93 235.73 69.17 237.12 65.22 237.64 C 60.61 234.40 57.03 229.86 53.38 225.60 C 41.40 212.93 28.26 201.34 16.89 188.09 C 12.97 183.95 8.53 180.27 4.97 175.80 C 13.57 174.21 21.89 171.43 30.48 169.77 C 41.10 167.44 51.52 164.24 62.18 162.04 Z" />
<path fill="#7c7c7c" d=" M 1616.58 168.59 C 1624.71 166.90 1632.62 164.21 1640.85 162.91 C 1641.20 214.93 1640.84 266.97 1641.02 319.00 C 1641.02 321.31 1640.93 323.63 1640.86 325.95 C 1628.75 329.46 1616.41 332.05 1604.18 335.08 C 1596.43 337.24 1588.62 339.12 1580.75 340.72 C 1569.37 343.93 1557.74 346.14 1546.33 349.24 C 1542.40 350.29 1538.45 351.25 1534.44 351.78 C 1534.58 297.37 1534.43 242.96 1534.52 188.54 C 1551.26 184.20 1568.22 180.58 1584.95 176.13 C 1595.65 174.25 1605.95 170.75 1616.58 168.59 Z" />
<path fill="#bfbfbf" d=" M 1464.26 170.36 C 1473.85 168.12 1483.31 165.38 1492.99 163.55 C 1493.12 175.68 1493.13 187.83 1492.97 199.96 C 1486.08 193.21 1479.32 186.32 1472.48 179.53 C 1469.58 176.61 1466.38 173.93 1464.26 170.36 Z" />
<path fill="#ffffff" d=" M 1082.17 180.53 C 1094.14 177.40 1106.18 174.49 1118.27 171.87 C 1118.50 256.62 1118.24 341.39 1118.41 426.14 C 1096.54 431.95 1074.44 436.81 1052.54 442.47 C 1039.87 445.07 1027.49 448.89 1014.82 451.46 C 973.96 461.73 932.93 471.29 892.07 481.58 C 891.59 441.40 892.01 401.19 891.87 361.00 C 891.87 316.38 891.86 271.75 891.87 227.12 C 893.63 226.34 895.47 225.77 897.37 225.37 C 911.26 222.55 924.82 218.31 938.72 215.53 C 955.47 211.10 972.38 207.30 989.20 203.13 C 1000.85 199.90 1012.76 197.75 1024.40 194.45 C 1043.69 189.96 1062.87 184.99 1082.17 180.53 Z" />
<path fill="#ffffff" d=" M 1643.11 186.95 C 1657.89 182.23 1673.25 179.61 1688.21 175.48 C 1688.41 274.32 1688.24 373.16 1688.29 472.00 C 1688.10 477.55 1688.73 483.14 1687.94 488.65 C 1676.79 491.00 1665.78 493.88 1654.73 496.61 C 1643.89 498.74 1633.35 502.13 1622.53 504.28 C 1584.68 513.57 1546.80 522.70 1508.92 531.83 C 1508.82 476.89 1508.92 421.95 1508.87 367.00 C 1509.43 355.07 1508.55 343.14 1508.90 331.19 C 1515.43 339.21 1523.57 345.77 1530.40 353.53 C 1532.05 356.31 1535.73 354.80 1538.25 354.33 C 1551.23 351.64 1563.95 347.83 1576.91 345.03 C 1598.89 339.58 1620.94 334.41 1642.89 328.84 C 1643.48 304.58 1642.97 280.28 1643.15 256.00 C 1643.13 232.98 1643.18 209.96 1643.11 186.95 Z" />
<path fill="#ffffff" d=" M 241.24 193.44 C 249.50 191.53 257.69 189.30 265.91 187.22 C 266.05 237.40 266.08 287.59 265.89 337.76 C 251.71 341.02 237.62 344.65 223.48 348.06 C 223.45 298.12 223.54 248.18 223.43 198.24 C 229.03 195.65 235.29 194.90 241.24 193.44 Z" />
<path fill="#ffffff" d=" M 1205.57 191.36 C 1206.80 191.14 1208.38 190.36 1209.40 191.58 C 1215.18 197.13 1220.73 202.92 1226.45 208.54 C 1230.78 213.04 1235.56 217.14 1239.31 222.17 C 1244.50 223.45 1249.62 220.66 1254.68 219.70 C 1277.77 214.05 1300.85 208.32 1323.99 202.86 C 1333.56 200.33 1343.17 197.95 1352.86 195.89 C 1352.93 212.53 1352.90 229.17 1352.88 245.80 C 1315.85 255.03 1278.72 263.88 1241.66 273.01 C 1241.55 343.03 1241.64 413.06 1241.62 483.08 C 1241.57 484.39 1241.41 485.70 1241.25 487.00 C 1234.98 488.10 1228.92 490.09 1222.73 491.51 C 1209.62 494.27 1196.72 497.87 1183.70 501.02 C 1183.63 399.70 1183.64 298.37 1183.70 197.06 C 1190.85 194.67 1198.29 193.31 1205.57 191.36 Z" />
<path fill="#ffffff" d=" M 1418.15 212.26 C 1432.02 208.63 1445.96 205.33 1459.90 202.00 C 1459.91 296.95 1459.75 391.92 1459.98 486.87 C 1462.74 490.71 1466.64 493.65 1469.85 497.14 C 1478.90 506.26 1488.07 515.26 1497.08 524.42 C 1489.14 527.30 1480.69 528.30 1472.59 530.59 C 1454.48 535.27 1436.20 539.21 1418.14 544.05 C 1418.06 433.46 1418.03 322.85 1418.15 212.26 Z" />
<path fill="#ffffff" d=" M 804.61 234.72 C 819.87 230.76 835.29 227.47 850.51 223.34 C 850.45 265.98 850.64 308.62 850.41 351.25 C 835.28 355.58 819.85 358.79 804.61 362.67 C 804.52 320.02 804.51 277.37 804.61 234.72 Z" />
<path fill="#ffffff" d=" M 66.18 240.37 C 78.87 237.65 91.42 234.33 103.98 231.09 C 114.46 241.57 124.98 252.03 135.43 262.55 C 141.52 270.17 148.88 276.65 155.72 283.58 C 146.52 285.48 137.47 287.99 128.36 290.23 C 121.29 291.67 114.30 293.43 107.33 295.26 C 107.01 295.50 106.37 295.97 106.06 296.21 C 105.92 337.80 106.04 379.40 106.00 421.00 C 105.97 424.17 106.14 427.37 105.70 430.53 C 92.40 433.34 79.40 437.44 66.03 439.91 C 65.96 386.27 66.02 332.63 66.00 278.99 C 66.10 266.12 65.78 253.24 66.18 240.37 Z" />
<path fill="#353535" d=" M 1062.80 234.81 C 1064.47 234.35 1066.20 234.19 1067.94 234.04 C 1068.17 285.67 1067.99 337.30 1068.03 388.93 C 1033.12 397.32 998.26 406.01 963.34 414.36 C 956.89 415.78 950.58 418.36 943.91 418.38 C 943.77 366.94 943.87 315.50 943.86 264.06 C 956.43 260.67 969.10 257.55 981.82 254.72 C 1008.72 247.69 1035.91 241.87 1062.80 234.81 Z" />
<path fill="#bfbfbf" d=" M 383.58 250.56 C 402.67 245.47 421.99 241.35 441.09 236.31 C 444.31 239.28 447.41 242.38 450.41 245.57 C 458.83 255.84 469.16 264.31 477.95 274.23 C 438.02 284.10 398.01 293.74 358.04 303.46 C 357.82 290.31 358.07 277.15 357.92 264.00 C 357.87 261.54 357.99 259.07 358.29 256.63 C 366.68 254.43 375.09 252.32 383.58 250.56 Z" />
<path fill="#7c7c7c" d=" M 968.76 260.82 C 988.08 255.82 1007.57 251.57 1026.85 246.44 C 1026.74 279.52 1026.99 312.61 1026.73 345.69 C 1006.49 351.70 985.66 355.52 965.33 361.24 C 959.00 362.63 952.65 363.88 946.41 365.61 C 946.72 332.56 946.49 299.50 946.52 266.44 C 953.73 263.87 961.37 262.80 968.76 260.82 Z" />
<path fill="#bfbfbf" d=" M 1305.25 260.33 C 1321.19 256.81 1336.93 252.45 1352.88 248.93 C 1352.92 274.48 1353.11 300.03 1352.78 325.57 C 1337.79 329.38 1322.65 332.64 1307.70 336.62 C 1306.43 337.20 1305.58 335.94 1304.78 335.23 C 1296.01 326.34 1287.15 317.54 1278.31 308.72 C 1273.45 304.20 1269.64 298.72 1264.72 294.28 C 1258.51 287.84 1251.79 281.87 1245.90 275.14 C 1265.53 269.61 1285.55 265.60 1305.25 260.33 Z" />
<path fill="#ffffff" d=" M 668.45 292.28 C 685.29 288.50 701.86 283.63 718.79 280.25 C 730.48 291.91 742.15 303.60 753.85 315.26 C 754.67 316.35 756.58 317.95 755.60 319.36 C 739.96 323.46 724.05 326.55 708.53 331.08 C 708.35 350.57 708.47 370.08 708.47 389.58 C 697.98 392.57 687.27 394.70 676.71 397.44 C 674.00 398.16 671.26 398.70 668.48 399.05 C 668.45 363.46 668.51 327.87 668.45 292.28 Z" />
<path fill="#ffffff" d=" M 110.19 297.55 C 126.13 293.77 141.94 289.39 157.98 286.02 C 161.85 291.39 167.06 295.60 171.58 300.40 C 179.77 308.89 188.67 316.72 196.17 325.84 C 204.58 334.19 212.84 342.68 221.36 350.91 C 223.03 350.81 224.71 350.77 226.33 350.32 C 239.47 346.75 252.83 344.06 265.98 340.55 C 266.01 362.30 266.01 384.04 265.98 405.79 C 253.42 409.03 240.69 411.57 228.19 415.04 C 227.17 415.16 225.82 415.97 225.01 414.96 C 214.76 404.88 204.68 394.63 194.47 384.52 C 192.03 382.26 190.31 379.37 187.93 377.06 C 178.57 367.75 169.26 358.39 159.91 349.09 C 148.57 335.83 135.37 324.29 123.43 311.57 C 119.55 306.41 114.52 302.30 110.19 297.55 Z" />
<path fill="#ffffff" d=" M 550.83 303.89 C 556.08 302.65 561.22 300.90 566.58 300.13 C 573.75 307.06 580.73 314.19 587.77 321.25 C 593.87 328.76 601.16 335.17 607.87 342.12 C 613.43 347.90 619.57 353.16 624.49 359.53 C 634.06 369.28 643.87 378.80 653.42 388.56 C 657.21 393.49 661.79 397.72 666.18 402.11 C 670.69 402.29 674.91 400.43 679.30 399.69 C 689.11 397.86 698.55 394.31 708.45 392.96 C 708.41 412.36 708.52 431.76 708.39 451.16 C 693.90 454.45 679.47 458.01 665.08 461.69 C 659.45 457.27 654.45 451.72 649.85 446.16 C 642.38 438.62 634.83 431.16 627.34 423.64 C 622.89 419.10 618.11 414.85 614.25 409.78 C 603.68 399.01 592.88 388.46 582.28 377.72 C 576.21 370.17 568.85 363.81 562.17 356.83 C 555.46 349.86 548.11 343.48 542.03 335.95 C 534.07 327.80 525.91 319.85 517.91 311.75 C 528.90 309.20 539.86 306.55 550.83 303.89 Z" />
<path fill="#ffffff" d=" M 741.00 326.03 C 747.18 324.68 753.32 322.29 759.66 322.15 C 769.80 331.71 779.44 341.83 789.38 351.62 C 793.35 356.39 797.54 361.00 802.21 365.13 C 803.64 365.57 805.18 365.27 806.64 365.00 C 821.37 361.84 835.86 357.63 850.60 354.51 C 850.34 374.81 850.66 395.12 850.44 415.42 C 835.19 419.71 819.68 422.88 804.35 426.83 C 798.03 420.76 791.86 414.53 785.74 408.27 C 782.13 403.57 777.73 399.58 773.58 395.39 C 765.58 387.38 757.58 379.38 749.56 371.39 C 738.08 357.84 724.40 346.32 712.54 333.13 C 721.92 330.37 731.58 328.69 741.00 326.03 Z" />
<path fill="#7c7c7c" d=" M 1335.03 333.02 C 1340.91 331.56 1346.70 329.73 1352.63 328.46 C 1353.23 352.63 1352.71 376.82 1352.89 401.00 C 1352.90 427.35 1352.86 453.70 1352.90 480.04 C 1352.62 482.79 1355.14 484.43 1356.77 486.23 C 1369.55 500.10 1383.31 513.03 1396.50 526.50 C 1396.97 527.11 1397.42 527.75 1397.87 528.42 C 1388.87 530.57 1379.99 533.19 1370.90 534.93 C 1349.75 540.70 1328.13 544.51 1307.06 550.61 C 1307.01 480.46 1306.94 410.32 1307.10 340.18 C 1316.08 336.69 1325.72 335.39 1335.03 333.02 Z" />
<path fill="#ffffff" d=" M 1006.17 354.25 C 1013.13 352.34 1020.31 351.32 1027.19 349.12 C 1036.42 358.10 1045.49 367.25 1054.54 376.42 C 1057.29 380.32 1061.02 383.33 1064.03 387.01 C 1050.96 390.27 1037.79 393.11 1024.79 396.65 C 1012.55 399.08 1000.58 402.67 988.42 405.41 C 974.41 408.51 960.61 412.47 946.61 415.51 C 946.61 400.11 946.67 384.70 946.57 369.30 C 956.58 365.91 967.07 364.18 977.22 361.28 C 986.92 359.16 996.56 356.77 1006.17 354.25 Z" />
<path fill="#bfbfbf" d=" M 421.15 381.46 C 435.66 377.58 450.38 374.60 464.86 370.60 C 469.57 374.71 473.78 379.36 478.23 383.74 C 485.55 392.54 494.15 400.13 502.07 408.36 C 486.02 412.84 469.64 416.05 453.57 420.46 C 439.19 423.42 425.11 427.64 410.76 430.70 C 393.21 435.24 375.50 439.05 357.99 443.73 C 357.88 430.15 358.05 416.56 357.92 402.97 C 357.88 400.82 358.02 398.67 358.33 396.54 C 379.34 391.81 400.16 386.29 421.15 381.46 Z" />
<path fill="#353535" d=" M 1625.43 376.54 C 1630.23 375.70 1634.87 373.83 1639.78 373.70 C 1639.83 400.72 1639.81 427.74 1639.79 454.76 C 1616.39 460.51 1592.97 466.20 1569.53 471.79 C 1565.56 472.73 1561.66 474.13 1557.55 474.14 C 1557.16 447.02 1557.35 419.88 1557.45 392.76 C 1580.07 387.18 1602.87 382.36 1625.43 376.54 Z" />
<path fill="#7c7c7c" d=" M 1576.46 391.56 C 1580.86 390.35 1585.23 389.04 1589.73 388.20 C 1590.04 393.57 1590.17 398.98 1589.68 404.35 C 1579.78 406.08 1570.32 409.96 1560.28 410.90 C 1560.00 405.72 1559.96 400.52 1560.33 395.34 C 1565.58 393.56 1571.13 393.05 1576.46 391.56 Z" />
<path fill="#bfbfbf" d=" M 1560.51 414.58 C 1570.68 412.17 1580.79 409.49 1591.00 407.24 C 1597.92 412.93 1603.01 420.38 1609.55 426.45 C 1618.31 435.21 1627.10 443.95 1635.84 452.72 C 1623.15 456.31 1610.17 458.66 1597.47 462.22 C 1584.95 464.79 1572.70 468.47 1560.19 471.07 C 1560.06 455.04 1560.22 439.02 1560.12 423.00 C 1560.06 420.18 1560.01 417.35 1560.51 414.58 Z" />
<path fill="#7c7c7c" d=" M 226.27 418.35 C 239.51 415.36 252.61 411.77 265.88 408.94 C 266.10 425.31 265.98 441.68 265.92 458.05 C 265.86 459.98 266.03 462.07 267.66 463.37 C 273.98 469.70 280.39 475.95 286.68 482.32 C 292.50 488.94 298.35 495.70 305.23 501.24 C 314.76 501.02 323.83 497.39 333.06 495.31 C 338.71 494.10 344.32 492.72 349.89 491.17 C 349.83 506.94 350.26 522.74 349.67 538.49 C 340.11 540.18 330.87 543.21 321.36 545.12 C 310.72 547.40 300.37 550.87 289.64 552.74 C 268.53 558.36 247.13 562.83 226.07 568.62 C 225.95 538.42 226.05 508.21 226.02 478.00 C 226.18 458.12 225.69 438.22 226.27 418.35 Z" />
<path fill="#7c7c7c" d=" M 804.51 429.66 C 819.94 426.12 835.33 422.38 850.65 418.38 C 850.53 425.60 850.48 432.81 850.47 440.03 C 850.56 442.05 850.35 444.44 852.03 445.94 C 858.26 452.38 864.80 458.53 871.02 464.98 C 876.45 471.54 882.49 477.57 888.67 483.41 C 891.94 485.36 895.87 483.16 899.28 482.53 C 913.25 479.44 927.15 476.04 940.97 472.33 C 940.97 488.87 941.04 505.42 940.94 521.96 C 941.41 524.62 938.18 524.78 936.40 525.40 C 918.75 529.65 901.08 533.81 883.49 538.31 C 874.52 539.98 865.75 542.52 856.94 544.84 C 839.40 548.65 822.04 553.20 804.58 557.37 C 804.42 514.80 804.56 472.23 804.51 429.66 Z" />
<path fill="#7c7c7c" d=" M 1070.85 440.90 C 1086.79 437.25 1102.56 432.89 1118.52 429.35 C 1118.85 433.69 1116.95 439.08 1120.55 442.45 C 1128.71 450.62 1136.92 458.75 1145.07 466.92 C 1147.13 468.67 1146.52 471.57 1146.66 473.96 C 1146.44 482.80 1146.75 491.65 1146.56 500.50 C 1137.89 503.20 1128.87 504.52 1120.19 507.16 C 1111.41 509.60 1102.35 510.91 1093.64 513.62 C 1079.15 517.12 1064.65 520.54 1050.19 524.14 C 1041.46 526.78 1032.39 528.01 1023.65 530.60 C 1013.87 533.54 1003.71 534.94 993.95 537.94 C 982.07 540.63 970.31 543.79 958.42 546.43 C 951.52 547.97 944.83 550.34 937.86 551.55 C 931.30 552.70 924.97 554.80 918.51 556.36 C 905.03 559.42 891.64 562.85 878.19 565.97 C 878.10 558.13 877.80 550.27 878.37 542.45 C 888.74 540.79 898.68 537.30 908.99 535.35 C 915.48 534.02 921.82 532.05 928.25 530.44 C 933.14 529.16 938.28 528.86 943.00 526.91 C 943.38 513.61 943.02 500.30 943.15 487.00 C 943.28 481.91 942.59 476.74 943.71 471.72 C 955.46 469.50 966.81 465.64 978.58 463.53 C 999.00 458.18 1019.64 453.63 1040.07 448.28 C 1050.47 446.44 1060.51 443.07 1070.85 440.90 Z" />
<path fill="#7c7c7c" d=" M 688.85 458.90 C 695.50 457.72 701.81 455.13 708.51 454.17 C 708.53 457.38 708.26 460.63 708.75 463.82 C 710.83 467.38 714.44 469.73 716.97 472.97 C 721.10 478.16 726.07 482.57 730.69 487.31 C 738.00 494.67 745.40 501.94 752.69 509.33 C 762.37 520.96 774.03 530.75 784.16 541.95 C 775.94 544.42 767.41 545.66 759.19 548.14 C 749.94 550.89 740.32 552.16 731.09 555.01 C 717.38 558.27 703.70 561.63 690.00 564.93 C 681.81 567.37 673.39 568.92 665.08 570.85 C 664.97 540.23 665.06 509.61 665.04 479.00 C 665.06 474.19 664.82 469.36 665.31 464.57 C 673.18 462.77 680.89 460.33 688.85 458.90 Z" />
<path fill="#7c7c7c" d=" M 1534.83 528.85 C 1578.78 518.06 1622.81 507.48 1666.83 496.90 C 1667.06 504.19 1667.06 511.48 1666.84 518.77 C 1660.09 521.25 1652.91 522.09 1645.98 523.90 C 1626.31 529.19 1606.36 533.32 1586.69 538.61 C 1575.48 540.64 1564.65 544.24 1553.50 546.54 C 1544.44 548.93 1535.30 550.96 1526.19 553.14 C 1515.39 556.42 1504.14 557.90 1493.37 561.32 C 1472.57 565.98 1452.01 571.62 1431.20 576.23 C 1422.94 578.46 1414.67 580.68 1406.26 582.32 C 1399.29 583.67 1392.65 586.72 1385.48 586.90 C 1385.74 569.53 1385.28 552.15 1385.72 534.79 C 1390.32 533.36 1394.96 531.72 1399.80 531.33 C 1405.93 535.49 1409.93 542.24 1416.10 546.36 C 1419.42 547.16 1422.76 545.76 1425.99 545.05 C 1436.26 541.92 1446.94 540.45 1457.21 537.31 C 1471.13 534.10 1484.97 530.52 1498.88 527.25 C 1502.59 530.01 1505.19 536.32 1510.74 534.74 C 1518.81 532.98 1526.65 530.20 1534.83 528.85 Z" />
</svg>
